<?xml version="1.0" encoding="UTF-8"?>
<svg width="181px" height="251px" viewBox="0 0 181 251" version="1.1" xmlns="http://www.w3.org/2000/svg" xmlns:xlink="http://www.w3.org/1999/xlink">
    <!-- Generator: Sketch 56.3 (81716) - https://sketch.com -->
    <title>MI-Heats</title>
    <desc>Created with Sketch.</desc>
    <g id="MI-Heats" stroke="none" stroke-width="1" fill="none" fill-rule="evenodd">
        <path d="M146,10.1 C146.357205,8.9036306 146.135283,7.60908583 145.4,6.6 C144.625181,5.6163055 143.451847,5.02963883 142.2,5 L121.9,5 L121,5.9 C111.8,15.1 101.8,19.7 91.3,19.7 L91.2,19.7 C73.2,19.7 59.4,6 59.2,5.9 L58.3,5 L38,5 C36.7481527,5.02963883 35.5748194,5.6163055 34.8,6.6 C34.0647172,7.60908583 33.8427953,8.9036306 34.2,10.1 C36.6,18.5 46.8,62.5 8,103.2 C6.076371,105.223524 5.00256095,107.908049 5,110.7 L5,240.4 C5,243.713708 7.6862915,246.4 11,246.4 L169.2,246.4 C172.513708,246.4 175.2,243.713708 175.2,240.4 L175.2,110.7 C175.197439,107.908049 174.123629,105.223524 172.2,103.2 C133.4,62.5 143.6,18.5 146,10.1 Z" id="Path" fill="#313131" fill-rule="nonzero"></path>
        <g id="MI-Heat" transform="translate(11.000000, 97.300000)" fill-rule="nonzero">
            <path d="M158.2,25.2 L148.2,25.2 L148.2,0 C150.927262,3.47976968 153.831071,6.81748063 156.9,10 C157.721137,10.9443192 158.181648,12.1487333 158.2,13.4 L158.2,25.2 Z M148.2,103.2 L148.2,80.2 L158.2,80.2 L158.2,103.2 L148.2,103.2 Z M148.2,64.2 L148.2,41.2 L158.2,41.2 L158.2,64.2 L148.2,64.2 Z M10,41.2 L10,64.2 L-3.55271368e-15,64.2 L-3.55271368e-15,41.2 L10,41.2 Z M10,80.2 L10,103.2 L-3.55271368e-15,103.2 L-3.55271368e-15,80.2 L10,80.2 Z M1.3,10 C4.36892925,6.81748063 7.27273778,3.47976968 10,0 L10,25.2 L-8.8817842e-15,25.2 L-8.8817842e-15,13.4 C0.018351508,12.1487333 0.478862753,10.9443192 1.3,10 Z M-3.55271368e-15,119.2 L10,119.2 L10,143.1 L-3.55271368e-15,143.1 L-3.55271368e-15,119.2 Z M148.2,143.1 L148.2,119.2 L158.2,119.2 L158.2,143.1 L148.2,143.1 Z" id="Combined-Shape" fill="#000000"></path>
            <path d="M148.2,109.2 L158.2,109.2 L158.2,113.2 L148.2,113.2 L148.2,109.2 Z M148.2,74.2 L148.2,70.2 L158.2,70.2 L158.2,74.2 L148.2,74.2 Z M148.2,35.2 L148.2,31.2 L158.2,31.2 L158.2,35.2 L148.2,35.2 Z M0,35.2 L0,31.2 L10,31.2 L10,35.2 L0,35.2 Z M10,70.2 L10,74.2 L0,74.2 L0,70.2 L10,70.2 Z M10,109.2 L10,113.2 L0,113.2 L0,109.2 L10,109.2 Z" id="Combined-Shape" fill="#E13BB0"></path>
        </g>
        <path d="M91.2,25.7 L91.3,25.7 C101.3,25.7 110.9,22.1 119.7,15.1 C116.8,45.7 97.6,68.1 93.5,72.5 C93.2948446,72.7314455 93.0082496,72.874743 92.7,72.9 L87.5,72.9 C87.1917504,72.874743 86.9051554,72.7314455 86.7,72.5 C82.6,68.1 63.3,45.6 60.4,14.7 C66.7,19.3 77.7,25.7 91.2,25.7 Z" id="Path" fill="#181818" fill-rule="nonzero"></path>
        <path d="M40.6,11 L54.2,11 C55.6,45 76,69.7 82.3,76.6 C83.6443834,78.0476032 85.5245281,78.8792056 87.5,78.9 L92.7,78.9 C94.6754719,78.8792056 96.5556166,78.0476032 97.9,76.6 C104.2,69.7 124.6,45 126,11 L139.6,11 C133.552698,37.6763714 138.451361,65.6635875 153.2,88.7 L153.2,240.4 L27,240.4 L27,88.7 C41.8021345,65.6844529 46.7047046,37.6749166 40.6,11 Z" id="Path" fill="#000000" fill-rule="nonzero"></path>
        <g id="Group" transform="translate(90.500000, 114.000000) rotate(-5.000000) translate(-90.500000, -114.000000) translate(50.000000, 100.000000)" fill-rule="nonzero">
            <path d="M23.8321653,6.63733403 C23.0181612,6.85933515 22.2473355,7.2416647 21.5196651,7.78433412 C20.7919948,8.32700354 20.132168,8.9498307 19.540165,9.65283427 C18.948162,10.3558378 18.4548335,11.1019971 18.0601648,11.8913345 C17.6654962,12.6806718 17.3941655,13.4329977 17.2461648,14.1483346 C16.7774957,14.0743343 16.3026671,13.8770029 15.8216647,13.5563346 C15.3406622,13.2356663 14.921333,12.8780032 14.5636646,12.4833345 C14.2059961,12.0886658 13.9531653,11.6878365 13.8051645,11.2808344 C13.6571638,10.8738323 13.6818302,10.534669 13.8791645,10.2633343 C14.1998328,9.84399886 14.619162,9.39383665 15.1371646,8.91283421 C15.6551672,8.43183177 16.2224949,7.95700314 16.8391647,7.4883341 C17.4558345,7.01966505 18.0971615,6.57566945 18.7631649,6.15633399 C19.4291683,5.73699852 20.0951617,5.3793354 20.7611651,5.0833339 C20.4651636,4.44199731 19.8670028,4.28166557 18.9666649,4.60233386 C18.066327,4.92300216 16.925505,5.60132876 15.5441646,6.63733403 C14.0394903,7.77200646 12.7075035,9.09166004 11.5481643,10.5963343 C10.3888251,12.1010087 9.43300124,13.6179936 8.68066409,15.1473347 C7.92832693,16.6766758 7.39799886,18.1504945 7.08966396,19.5688351 C6.78132906,20.9871756 6.73816282,22.1834971 6.96016395,23.1578354 C7.18216508,24.1321736 7.68166012,24.8043336 8.45866407,25.1743355 C9.23566802,25.5443374 10.3394904,25.4456717 11.7701643,24.8783355 C11.7208308,24.3603329 11.7824968,23.7498389 11.9551644,23.0468354 C12.1278319,22.3438318 12.3868293,21.5606729 12.7321644,20.6973352 C12.904832,20.3026665 13.0713303,19.8895039 13.2316645,19.4578351 C13.3919986,19.0261662 13.5708302,18.576004 13.7681645,18.107335 C12.6828257,18.2306689 11.7578348,18.2306689 10.9931643,18.107335 C10.7218296,18.0826682 10.5183316,17.9100032 10.3826642,17.5893349 C10.2469969,17.2686666 10.166831,16.8986703 10.1421642,16.4793348 C10.1174974,16.0599994 10.1606637,15.628337 10.2716642,15.1843347 C10.3826648,14.7403325 10.5491631,14.3703361 10.7711643,14.0743346 C11.2398333,14.3950029 11.8009944,14.6663336 12.4546644,14.8883347 C13.1083344,15.1103358 13.7989942,15.2583344 14.5266646,15.3323347 C15.2543349,15.4063351 15.9758278,15.4001685 16.6911647,15.3138347 C17.4065017,15.227501 18.0601619,15.024003 18.6521649,14.7033347 C18.7508321,14.7280015 18.8741642,14.8020007 19.0221649,14.9253347 C19.1701657,15.0486687 19.2996644,15.1905006 19.410665,15.3508347 C19.5216655,15.5111689 19.607998,15.6715006 19.669665,15.8318348 C19.731332,15.9921689 19.7128321,16.1216676 19.614165,16.2203348 C19.1948295,17.3056737 18.7940002,18.3539966 18.4116649,19.3653351 C18.0293296,20.3766735 17.6778331,21.3139976 17.3571648,22.1773353 C17.1844972,22.6706711 17.0364987,23.157833 16.9131648,23.6388354 C16.7898308,24.1198378 16.6973317,24.5761667 16.6356647,25.0078355 C16.5739978,25.4395044 16.5493313,25.8280005 16.5616647,26.1733356 C16.5739981,26.5186707 16.6418308,26.7900013 16.7651647,26.9873357 C15.6304923,27.1106696 14.7116681,27.1168362 14.0086645,27.0058357 C13.3056609,26.8948351 12.7691663,26.6666707 12.3991644,26.3213356 C10.8451565,27.0613394 9.3898376,27.5300014 8.03316404,27.7273357 C6.67649048,27.9246701 5.4678358,27.893837 4.40716374,27.6348357 C3.34649169,27.3758344 2.45850049,26.9010058 1.74316353,26.2103356 C1.02782656,25.5196654 0.528331512,24.6501741 0.244663404,23.6018354 C-0.0390047043,22.5534967 -0.0760043373,21.3510087 0.133663395,19.9943351 C0.343331127,18.6376615 0.842826172,17.1576762 1.63216352,15.5543347 C2.32283369,14.1483276 3.15532543,12.8163408 4.12966372,11.5583344 C5.104002,10.300328 6.13382512,9.1410062 7.21916397,8.08033414 C8.30450282,7.01966209 9.41449181,6.07617145 10.5491642,5.24983391 C11.6838367,4.42349638 12.756826,3.73900317 13.7681645,3.19633375 C14.6315022,2.7276647 15.5379932,2.394668 16.4876647,2.19733367 C17.4373362,2 18.331494,1.95066649 19.1701649,2.04933365 C20.0088359,2.14800082 20.7303287,2.39466504 21.3346651,2.78933371 C21.9390015,3.18400239 22.3398309,3.75133009 22.5371652,4.49133385 C22.685166,4.46666706 22.8269979,4.44816724 22.9626652,4.43583385 C23.0983326,4.42350045 23.2278313,4.41733385 23.3511653,4.41733385 C23.5238328,4.41733385 23.6594981,4.50983293 23.7581653,4.69483387 C23.8568325,4.87983481 23.9184985,5.10183261 23.9431653,5.36083392 C23.9678321,5.61983524 23.9678321,5.87266606 23.9431653,6.11933398 C23.9184985,6.3660019 23.8814989,6.53866686 23.8321653,6.63733403 Z M33.9448503,12.0023345 C34.2655186,11.4843318 34.5615156,11.0403362 34.8328503,10.6703344 C34.9068507,10.5223336 35.1411817,10.516167 35.5358504,10.6518344 C35.9305191,10.7875017 36.3313484,10.9971663 36.7383505,11.2808344 C37.1453526,11.5645025 37.4906825,11.885166 37.7743506,12.2428345 C38.0580187,12.600503 38.1258513,12.9273331 37.9778506,13.2233346 C37.2378468,14.6786753 36.4916876,16.2141601 35.7393504,17.8298349 C34.9870133,19.4455098 34.4258522,21.0426606 34.0558503,22.6213353 C34.9931884,21.7826644 35.9551788,20.8453404 36.9418505,19.8093351 C37.9285222,18.7733298 38.853513,17.7990062 39.7168507,16.8863349 C39.8895183,16.7136673 40.0806831,16.6335014 40.2903508,16.6458348 C40.5000185,16.6581682 40.6726835,16.7260009 40.8083508,16.8493349 C40.9440182,16.9726688 41.0241841,17.1391672 41.0488508,17.3488349 C41.0735176,17.5585026 40.9995184,17.7496674 40.8268508,17.9223349 C40.2841814,18.5143379 39.6798541,19.1494983 39.0138507,19.8278351 C38.3478473,20.5061719 37.6633541,21.1844985 36.9603505,21.8628353 C36.2573469,22.541172 35.5481873,23.1948322 34.8328503,23.8238354 C34.1175134,24.4528386 33.4391868,24.9893333 32.7978502,25.4333356 C32.6745162,25.5320027 32.4155188,25.5196695 32.0208501,25.3963355 C31.6261814,25.2730016 31.2315187,25.09417 30.83685,24.8598355 C30.4421813,24.625501 30.103018,24.3418371 29.8193499,24.0088354 C29.5356818,23.6758337 29.455516,23.3490037 29.5788499,23.0283354 C29.6035167,22.9296682 29.6713494,22.713837 29.7823499,22.3808353 C29.8933505,22.0478336 30.010516,21.6901705 30.13385,21.3078352 C30.2571839,20.9254999 30.3743494,20.5678368 30.48535,20.2348351 C30.5963506,19.9018334 30.6765164,19.6860022 30.72585,19.5873351 C30.3558481,20.1053377 29.9611854,20.6418324 29.5418499,21.1968352 C29.1225144,21.751838 28.6908521,22.2883327 28.2468498,22.8063353 C27.0875106,24.1383421 25.9158555,25.0078335 24.7318495,25.4148355 C23.5478435,25.8218376 22.5611866,25.8280042 21.7718493,25.4333356 C20.9825119,25.0386669 20.5138499,24.2986742 20.3658492,23.2133354 C20.2178484,22.1279965 20.600178,20.7466769 21.5128493,19.069335 C21.9075179,18.3539981 22.3885132,17.6263386 22.9558494,16.8863349 C23.3998516,16.2696651 23.8931801,15.6530045 24.4358495,15.0363347 C24.9785189,14.4196649 25.5335134,13.8338374 26.1008496,13.2788346 C26.6681858,12.7238317 27.2478468,12.2305033 27.8398498,11.7988344 C28.4318528,11.3671656 28.9991805,11.0156691 29.5418499,10.7443344 C29.9611854,10.547 30.3990144,10.3990015 30.85535,10.3003343 C31.3116857,10.2016672 31.7433481,10.1831673 32.1503501,10.2448343 C32.5573522,10.3065013 32.9211819,10.4791663 33.2418502,10.7628344 C33.5625185,11.0465025 33.7968495,11.459665 33.9448503,12.0023345 Z M31.13285,13.2973346 C30.5655138,13.7413368 29.9796863,14.2716649 29.3753499,14.8883347 C28.7710135,15.5050045 28.1975192,16.1339983 27.6548498,16.7753348 C27.1121803,17.4166714 26.6250185,18.0579984 26.1933496,18.699335 C25.7616808,19.3406716 25.4348507,19.9203325 25.2128496,20.4383351 C24.9661816,21.0056714 24.7873501,21.5483326 24.6763495,22.0663353 C24.565349,22.5843379 24.565349,22.9666675 24.6763495,23.2133354 C24.7873501,23.4600033 25.0278477,23.5031695 25.3978496,23.3428354 C25.7678515,23.1825012 26.3105127,22.6953394 27.0258497,21.8813353 C27.9878546,20.7713296 28.9251786,19.5626749 29.8378499,18.255335 C30.7505212,16.947995 31.613846,15.665341 32.4278501,14.4073347 C32.4525169,14.1606667 32.48335,13.9016693 32.5203502,13.6303346 C32.5573503,13.3589999 32.5388503,13.1370021 32.4648501,12.9643345 C32.3908498,12.791667 32.2551845,12.7176677 32.0578501,12.7423345 C31.8605158,12.7670013 31.5521855,12.9519995 31.13285,13.2973346 Z M38.3225348,21.8073353 C38.6678698,20.9439975 39.0378662,20.1053392 39.4325348,19.2913351 C39.8272035,18.4773309 40.2465327,17.663339 40.690535,16.8493349 C41.0112032,16.2573318 41.3257001,15.6653377 41.634035,15.0733347 C41.9423699,14.4813317 42.2692,13.9016708 42.6145351,13.3343346 C42.7132023,13.1370002 42.9475333,13.1185004 43.3175352,13.2788346 C43.687537,13.4391687 44.0575334,13.6858329 44.4275353,14.0188346 C44.7975371,14.3518363 45.0997008,14.715666 45.3340353,15.1103347 C45.5683699,15.5050034 45.6115361,15.8503333 45.4635353,16.1463348 C44.8221987,17.2810072 44.1500387,18.4649955 43.4470352,19.6983351 C42.7440316,20.9316747 42.1952037,22.177329 41.800535,23.4353354 C42.2692041,22.6706648 42.8611982,21.7518406 43.5765352,20.6788352 C44.2918722,19.6058297 45.0626978,18.4958407 45.8890354,17.3488349 C46.7153729,16.2018291 47.5725311,15.0795069 48.4605356,13.9818346 C49.3485401,12.8841624 50.2118649,11.9160053 51.0505358,11.0773344 C51.2478701,10.9046668 51.531534,10.9046668 51.9015359,11.0773344 C52.2715377,11.2500019 52.6292009,11.4904995 52.9745359,11.7988344 C53.319871,12.1071693 53.6035349,12.440166 53.825536,12.7978345 C54.0475371,13.155503 54.1215364,13.4453335 54.047536,13.6673346 C53.3815326,15.1473421 52.7402057,16.6828269 52.1235359,18.273835 C51.5068661,19.8648431 50.9518716,21.4373275 50.4585357,22.9913354 C51.3218735,21.486661 52.1851982,20.0313421 53.048536,18.625335 C53.9118737,17.2193279 54.750532,15.9181741 55.5645362,14.7218347 C56.3785403,13.5254953 57.1431994,12.4648391 57.8585363,11.5398344 C58.5738733,10.6148297 59.2028671,9.89333688 59.7455365,9.37533425 C59.8442037,9.25200029 60.0723681,9.28899992 60.4300366,9.48633426 C60.787705,9.68366859 61.1392015,9.94883263 61.4845366,10.2818343 C61.8298717,10.614836 62.1197022,10.9848323 62.3540367,11.3918344 C62.5883712,11.7988365 62.6562039,12.150333 62.5575367,12.4463345 C62.2615352,13.1370047 61.8853723,14.006496 61.4290366,15.0548347 C60.972701,16.1031734 60.504039,17.2069958 60.0230365,18.366335 C59.5420341,19.5256742 59.0857053,20.684996 58.6540364,21.8443353 C58.2223675,23.0036745 57.9078707,24.0396642 57.7105363,24.9523355 C58.0065378,24.7550012 58.3703676,24.4590041 58.8020364,24.0643354 C59.2337053,23.6696668 59.6962007,23.2195046 60.1895365,22.7138353 C60.6828724,22.2081661 61.188534,21.6716714 61.7065367,21.1043352 C62.2245393,20.536999 62.7117011,19.9881711 63.1680368,19.4578351 C63.6243724,18.927499 64.0313684,18.4341706 64.3890369,17.9778349 C64.7467054,17.5214993 65.0118694,17.1576696 65.1845369,16.8863349 C65.3078709,16.6643337 65.4682026,16.5471682 65.665537,16.5348348 C65.8628713,16.5225014 66.0478695,16.5656677 66.220537,16.6643348 C66.3932046,16.763002 66.5103701,16.9048339 66.572037,17.0898349 C66.633704,17.2748358 66.6028706,17.4783338 66.479537,17.7003349 C66.3315363,17.9470028 66.0417058,18.335499 65.610037,18.865835 C65.1783681,19.396171 64.6665399,19.9881652 64.0745368,20.6418352 C63.4825338,21.2955051 62.8535401,21.9799984 62.1875367,22.6953353 C61.5215333,23.4106723 60.8740397,24.0766657 60.2450365,24.6933355 C59.6160333,25.3100053 59.0363724,25.8341668 58.5060364,26.2658356 C57.9757004,26.6975045 57.574871,26.9503353 57.3035363,27.0243357 C57.0568684,27.0983361 56.7177051,27.0181702 56.2860362,26.7838357 C55.8543674,26.5495011 55.4412048,26.2535041 55.0465361,25.8958356 C54.6518674,25.5381671 54.3127041,25.1681708 54.029036,24.7858355 C53.7453679,24.4035002 53.6282024,24.1013366 53.677536,23.8793354 C53.8255368,23.3119992 54.0352013,22.6336726 54.3065361,21.8443353 C54.5778708,21.0549979 54.855368,20.2656724 55.1390361,19.4763351 C55.4227042,18.6869977 55.7002015,17.9408385 55.9715362,17.2378349 C56.2428709,16.5348313 56.4772019,15.9860034 56.6745362,15.5913348 C56.2798676,16.0846706 55.8173722,16.750664 55.2870361,17.5893349 C54.7567001,18.4280058 54.2078722,19.315997 53.640536,20.2533351 C53.0731998,21.1906732 52.5182053,22.1156641 51.9755359,23.0283354 C51.4328664,23.9410067 50.939538,24.7303322 50.4955357,25.3963355 C50.3722018,25.5196695 50.0762047,25.5320027 49.6075357,25.4333356 C49.1388666,25.3346684 48.6517048,25.1620034 48.1460356,24.9153355 C47.6403663,24.6686676 47.1963707,24.3726705 46.8140354,24.0273354 C46.4317002,23.6820003 46.2652018,23.3243372 46.3145354,22.9543353 C46.3885358,22.6336671 46.5303677,22.1773382 46.7400354,21.5853352 C46.9497032,20.9933322 47.171701,20.3705051 47.4060355,19.7168351 C47.64037,19.0631651 47.874701,18.4280047 48.1090356,17.8113349 C48.3433701,17.1946651 48.5345348,16.7013367 48.6825356,16.3313348 C48.0165322,16.9973382 47.3690386,17.7373309 46.7400354,18.551335 C46.1110322,19.3653391 45.5128715,20.1854977 44.9455353,21.0118352 C44.3781991,21.8381727 43.8602042,22.6398314 43.3915352,23.4168354 C42.9228661,24.1938393 42.5035369,24.8783325 42.1335351,25.4703356 C41.8375336,25.6430031 41.455204,25.6121701 40.986535,25.3778355 C40.5178659,25.143501 40.0677037,24.8166709 39.6360349,24.3973355 C39.204366,23.978 38.8528695,23.5216712 38.5815348,23.0283354 C38.3102001,22.5349995 38.2238676,22.1280036 38.3225348,21.8073353 Z M73.7432218,13.6303346 C73.2498859,14.0250033 72.7380577,14.4998319 72.2077216,15.0548347 C71.6773856,15.6098375 71.1778906,16.2079983 70.7092215,16.8493349 C71.0792234,16.8246681 71.4985526,16.7568354 71.9672216,16.6458348 C72.4358907,16.5348343 72.9045527,16.3930023 73.3732217,16.2203348 C73.8418908,16.0476673 74.2735532,15.8318361 74.6682218,15.5728348 C75.0628905,15.3138334 75.3588876,14.9993366 75.5562219,14.6293347 C75.778223,14.234666 75.9077218,13.8831695 75.9447219,13.5748346 C75.9817221,13.2664997 75.9200561,13.0568351 75.7597219,12.9458345 C75.5993878,12.834834 75.346557,12.8286674 75.0012219,12.9273345 C74.6558868,13.0260017 74.2365576,13.2603327 73.7432218,13.6303346 Z M69.8212214,18.218335 C69.1305513,19.3283406 68.7543883,20.2471648 68.6927214,20.9748352 C68.6310544,21.7025056 68.7975527,22.2328336 69.1922214,22.5658353 C69.5868901,22.898837 70.1603844,23.0345023 70.9127215,22.9728354 C71.6650587,22.9111684 72.5160502,22.6398377 73.4657217,22.1588353 C74.4153932,21.6778328 75.4143833,20.9995062 76.462722,20.1238351 C77.5110606,19.248164 78.5285506,18.1566748 79.5152222,16.8493349 C79.7125566,16.6766673 79.9098879,16.602668 80.1072223,16.6273348 C80.3045566,16.6520016 80.471055,16.7260009 80.6067223,16.8493349 C80.7423897,16.9726688 80.8287222,17.1330006 80.8657223,17.3303349 C80.9027225,17.5276692 80.8472231,17.7126674 80.6992223,17.8853349 C79.1452144,19.8340115 77.5665634,21.4064959 75.9632219,22.6028353 C74.3598805,23.7991747 72.8367289,24.6439997 71.3937216,25.1373355 C69.9507142,25.6306714 68.6680603,25.8033363 67.5457213,25.6553356 C66.4233822,25.5073348 65.5847239,25.0695058 65.0297211,24.3418355 C64.4747182,23.6141651 64.258887,22.615175 64.382221,21.3448352 C64.505555,20.0744954 65.0975491,18.5760103 66.1582211,16.8493349 C66.8735581,15.6653288 67.7368829,14.5676731 68.7482214,13.5563346 C69.7595598,12.5449961 70.8572156,11.718671 72.0412216,11.0773344 C73.0278933,10.534665 73.9590507,10.2818341 74.8347219,10.3188343 C75.710393,10.3558345 76.4072194,10.5963321 76.925222,11.0403344 C77.4432247,11.4843366 77.7453883,12.0824974 77.8317221,12.8348345 C77.9180559,13.5871717 77.6775583,14.394997 77.110222,15.2583347 C76.7648869,15.7763374 76.2900583,16.220333 75.6857219,16.5903348 C75.0813855,16.9603367 74.4400585,17.2625004 73.7617218,17.4968349 C73.083385,17.7311694 72.3927252,17.9038344 71.6897216,18.0148349 C70.986718,18.1258355 70.3638909,18.1936682 69.8212214,18.218335 Z" id="Game" fill="#E13BB0"></path>
            <path d="M23.8321653,4.63733403 C23.0181612,4.85933515 22.2473355,5.2416647 21.5196651,5.78433412 C20.7919948,6.32700354 20.132168,6.9498307 19.540165,7.65283427 C18.948162,8.35583784 18.4548335,9.10199711 18.0601648,9.89133445 C17.6654962,10.6806718 17.3941655,11.4329977 17.2461648,12.1483346 C16.7774957,12.0743343 16.3026671,11.8770029 15.8216647,11.5563346 C15.3406622,11.2356663 14.921333,10.8780032 14.5636646,10.4833345 C14.2059961,10.0886658 13.9531653,9.68783647 13.8051645,9.2808344 C13.6571638,8.87383233 13.6818302,8.53466903 13.8791645,8.26333432 C14.1998328,7.84399886 14.619162,7.39383665 15.1371646,6.91283421 C15.6551672,6.43183177 16.2224949,5.95700314 16.8391647,5.4883341 C17.4558345,5.01966505 18.0971615,4.57566945 18.7631649,4.15633399 C19.4291683,3.73699852 20.0951617,3.3793354 20.7611651,3.0833339 C20.4651636,2.44199731 19.8670028,2.28166557 18.9666649,2.60233386 C18.066327,2.92300216 16.925505,3.60132876 15.5441646,4.63733403 C14.0394903,5.77200646 12.7075035,7.09166004 11.5481643,8.59633435 C10.3888251,10.1010087 9.43300124,11.6179936 8.68066409,13.1473347 C7.92832693,14.6766758 7.39799886,16.1504945 7.08966396,17.5688351 C6.78132906,18.9871756 6.73816282,20.1834971 6.96016395,21.1578354 C7.18216508,22.1321736 7.68166012,22.8043336 8.45866407,23.1743355 C9.23566802,23.5443374 10.3394904,23.4456717 11.7701643,22.8783355 C11.7208308,22.3603329 11.7824968,21.7498389 11.9551644,21.0468354 C12.1278319,20.3438318 12.3868293,19.5606729 12.7321644,18.6973352 C12.904832,18.3026665 13.0713303,17.8895039 13.2316645,17.4578351 C13.3919986,17.0261662 13.5708302,16.576004 13.7681645,16.107335 C12.6828257,16.2306689 11.7578348,16.2306689 10.9931643,16.107335 C10.7218296,16.0826682 10.5183316,15.9100032 10.3826642,15.5893349 C10.2469969,15.2686666 10.166831,14.8986703 10.1421642,14.4793348 C10.1174974,14.0599994 10.1606637,13.628337 10.2716642,13.1843347 C10.3826648,12.7403325 10.5491631,12.3703361 10.7711643,12.0743346 C11.2398333,12.3950029 11.8009944,12.6663336 12.4546644,12.8883347 C13.1083344,13.1103358 13.7989942,13.2583344 14.5266646,13.3323347 C15.2543349,13.4063351 15.9758278,13.4001685 16.6911647,13.3138347 C17.4065017,13.227501 18.0601619,13.024003 18.6521649,12.7033347 C18.7508321,12.7280015 18.8741642,12.8020007 19.0221649,12.9253347 C19.1701657,13.0486687 19.2996644,13.1905006 19.410665,13.3508347 C19.5216655,13.5111689 19.607998,13.6715006 19.669665,13.8318348 C19.731332,13.9921689 19.7128321,14.1216676 19.614165,14.2203348 C19.1948295,15.3056737 18.7940002,16.3539966 18.4116649,17.3653351 C18.0293296,18.3766735 17.6778331,19.3139976 17.3571648,20.1773353 C17.1844972,20.6706711 17.0364987,21.157833 16.9131648,21.6388354 C16.7898308,22.1198378 16.6973317,22.5761667 16.6356647,23.0078355 C16.5739978,23.4395044 16.5493313,23.8280005 16.5616647,24.1733356 C16.5739981,24.5186707 16.6418308,24.7900013 16.7651647,24.9873357 C15.6304923,25.1106696 14.7116681,25.1168362 14.0086645,25.0058357 C13.3056609,24.8948351 12.7691663,24.6666707 12.3991644,24.3213356 C10.8451565,25.0613394 9.3898376,25.5300014 8.03316404,25.7273357 C6.67649048,25.9246701 5.4678358,25.893837 4.40716374,25.6348357 C3.34649169,25.3758344 2.45850049,24.9010058 1.74316353,24.2103356 C1.02782656,23.5196654 0.528331512,22.6501741 0.244663404,21.6018354 C-0.0390047043,20.5534967 -0.0760043373,19.3510087 0.133663395,17.9943351 C0.343331127,16.6376615 0.842826172,15.1576762 1.63216352,13.5543347 C2.32283369,12.1483276 3.15532543,10.8163408 4.12966372,9.55833443 C5.104002,8.30032803 6.13382512,7.1410062 7.21916397,6.08033414 C8.30450282,5.01966209 9.41449181,4.07617145 10.5491642,3.24983391 C11.6838367,2.42349638 12.756826,1.73900317 13.7681645,1.19633375 C14.6315022,0.727664699 15.5379932,0.394668002 16.4876647,0.197333666 C17.4373362,4.26325641e-14 18.331494,-0.049333514 19.1701649,0.049333654 C20.0088359,0.148000822 20.7303287,0.394665042 21.3346651,0.789333714 C21.9390015,1.18400239 22.3398309,1.75133009 22.5371652,2.49133385 C22.685166,2.46666706 22.8269979,2.44816724 22.9626652,2.43583385 C23.0983326,2.42350045 23.2278313,2.41733385 23.3511653,2.41733385 C23.5238328,2.41733385 23.6594981,2.50983293 23.7581653,2.69483387 C23.8568325,2.87983481 23.9184985,3.10183261 23.9431653,3.36083392 C23.9678321,3.61983524 23.9678321,3.87266606 23.9431653,4.11933398 C23.9184985,4.3660019 23.8814989,4.53866686 23.8321653,4.63733403 Z M33.9448503,10.0023345 C34.2655186,9.48433183 34.5615156,9.04033623 34.8328503,8.67033435 C34.9068507,8.5223336 35.1411817,8.516167 35.5358504,8.65183435 C35.9305191,8.78750171 36.3313484,8.99716629 36.7383505,9.2808344 C37.1453526,9.56450251 37.4906825,9.885166 37.7743506,10.2428345 C38.0580187,10.600503 38.1258513,10.9273331 37.9778506,11.2233346 C37.2378468,12.6786753 36.4916876,14.2141601 35.7393504,15.8298349 C34.9870133,17.4455098 34.4258522,19.0426606 34.0558503,20.6213353 C34.9931884,19.7826644 35.9551788,18.8453404 36.9418505,17.8093351 C37.9285222,16.7733298 38.853513,15.7990062 39.7168507,14.8863349 C39.8895183,14.7136673 40.0806831,14.6335014 40.2903508,14.6458348 C40.5000185,14.6581682 40.6726835,14.7260009 40.8083508,14.8493349 C40.9440182,14.9726688 41.0241841,15.1391672 41.0488508,15.3488349 C41.0735176,15.5585026 40.9995184,15.7496674 40.8268508,15.9223349 C40.2841814,16.5143379 39.6798541,17.1494983 39.0138507,17.8278351 C38.3478473,18.5061719 37.6633541,19.1844985 36.9603505,19.8628353 C36.2573469,20.541172 35.5481873,21.1948322 34.8328503,21.8238354 C34.1175134,22.4528386 33.4391868,22.9893333 32.7978502,23.4333356 C32.6745162,23.5320027 32.4155188,23.5196695 32.0208501,23.3963355 C31.6261814,23.2730016 31.2315187,23.09417 30.83685,22.8598355 C30.4421813,22.625501 30.103018,22.3418371 29.8193499,22.0088354 C29.5356818,21.6758337 29.455516,21.3490037 29.5788499,21.0283354 C29.6035167,20.9296682 29.6713494,20.713837 29.7823499,20.3808353 C29.8933505,20.0478336 30.010516,19.6901705 30.13385,19.3078352 C30.2571839,18.9254999 30.3743494,18.5678368 30.48535,18.2348351 C30.5963506,17.9018334 30.6765164,17.6860022 30.72585,17.5873351 C30.3558481,18.1053377 29.9611854,18.6418324 29.5418499,19.1968352 C29.1225144,19.751838 28.6908521,20.2883327 28.2468498,20.8063353 C27.0875106,22.1383421 25.9158555,23.0078335 24.7318495,23.4148355 C23.5478435,23.8218376 22.5611866,23.8280042 21.7718493,23.4333356 C20.9825119,23.0386669 20.5138499,22.2986742 20.3658492,21.2133354 C20.2178484,20.1279965 20.600178,18.7466769 21.5128493,17.069335 C21.9075179,16.3539981 22.3885132,15.6263386 22.9558494,14.8863349 C23.3998516,14.2696651 23.8931801,13.6530045 24.4358495,13.0363347 C24.9785189,12.4196649 25.5335134,11.8338374 26.1008496,11.2788346 C26.6681858,10.7238317 27.2478468,10.2305033 27.8398498,9.79883444 C28.4318528,9.36716558 28.9991805,9.01566907 29.5418499,8.74433436 C29.9611854,8.54700002 30.3990144,8.39900149 30.85535,8.30033432 C31.3116857,8.20166716 31.7433481,8.18316734 32.1503501,8.24483432 C32.5573522,8.3065013 32.9211819,8.47916625 33.2418502,8.76283436 C33.5625185,9.04650247 33.7968495,9.45966504 33.9448503,10.0023345 Z M31.13285,11.2973346 C30.5655138,11.7413368 29.9796863,12.2716649 29.3753499,12.8883347 C28.7710135,13.5050045 28.1975192,14.1339983 27.6548498,14.7753348 C27.1121803,15.4166714 26.6250185,16.0579984 26.1933496,16.699335 C25.7616808,17.3406716 25.4348507,17.9203325 25.2128496,18.4383351 C24.9661816,19.0056714 24.7873501,19.5483326 24.6763495,20.0663353 C24.565349,20.5843379 24.565349,20.9666675 24.6763495,21.2133354 C24.7873501,21.4600033 25.0278477,21.5031695 25.3978496,21.3428354 C25.7678515,21.1825012 26.3105127,20.6953394 27.0258497,19.8813353 C27.9878546,18.7713296 28.9251786,17.5626749 29.8378499,16.255335 C30.7505212,14.947995 31.613846,13.665341 32.4278501,12.4073347 C32.4525169,12.1606667 32.48335,11.9016693 32.5203502,11.6303346 C32.5573503,11.3589999 32.5388503,11.1370021 32.4648501,10.9643345 C32.3908498,10.791667 32.2551845,10.7176677 32.0578501,10.7423345 C31.8605158,10.7670013 31.5521855,10.9519995 31.13285,11.2973346 Z M38.3225348,19.8073353 C38.6678698,18.9439975 39.0378662,18.1053392 39.4325348,17.2913351 C39.8272035,16.4773309 40.2465327,15.663339 40.690535,14.8493349 C41.0112032,14.2573318 41.3257001,13.6653377 41.634035,13.0733347 C41.9423699,12.4813317 42.2692,11.9016708 42.6145351,11.3343346 C42.7132023,11.1370002 42.9475333,11.1185004 43.3175352,11.2788346 C43.687537,11.4391687 44.0575334,11.6858329 44.4275353,12.0188346 C44.7975371,12.3518363 45.0997008,12.715666 45.3340353,13.1103347 C45.5683699,13.5050034 45.6115361,13.8503333 45.4635353,14.1463348 C44.8221987,15.2810072 44.1500387,16.4649955 43.4470352,17.6983351 C42.7440316,18.9316747 42.1952037,20.177329 41.800535,21.4353354 C42.2692041,20.6706648 42.8611982,19.7518406 43.5765352,18.6788352 C44.2918722,17.6058297 45.0626978,16.4958407 45.8890354,15.3488349 C46.7153729,14.2018291 47.5725311,13.0795069 48.4605356,11.9818346 C49.3485401,10.8841624 50.2118649,9.91600531 51.0505358,9.07733439 C51.2478701,8.90466684 51.531534,8.90466684 51.9015359,9.07733439 C52.2715377,9.25000193 52.6292009,9.49049954 52.9745359,9.79883444 C53.319871,10.1071693 53.6035349,10.440166 53.825536,10.7978345 C54.0475371,11.155503 54.1215364,11.4453335 54.047536,11.6673346 C53.3815326,13.1473421 52.7402057,14.6828269 52.1235359,16.273835 C51.5068661,17.8648431 50.9518716,19.4373275 50.4585357,20.9913354 C51.3218735,19.486661 52.1851982,18.0313421 53.048536,16.625335 C53.9118737,15.2193279 54.750532,13.9181741 55.5645362,12.7218347 C56.3785403,11.5254953 57.1431994,10.4648391 57.8585363,9.53983442 C58.5738733,8.61482972 59.2028671,7.89333688 59.7455365,7.37533425 C59.8442037,7.25200029 60.0723681,7.28899992 60.4300366,7.48633426 C60.787705,7.68366859 61.1392015,7.94883263 61.4845366,8.28183432 C61.8298717,8.61483601 62.1197022,8.98483234 62.3540367,9.39183441 C62.5883712,9.79883648 62.6562039,10.150333 62.5575367,10.4463345 C62.2615352,11.1370047 61.8853723,12.006496 61.4290366,13.0548347 C60.972701,14.1031734 60.504039,15.2069958 60.0230365,16.366335 C59.5420341,17.5256742 59.0857053,18.684996 58.6540364,19.8443353 C58.2223675,21.0036745 57.9078707,22.0396642 57.7105363,22.9523355 C58.0065378,22.7550012 58.3703676,22.4590041 58.8020364,22.0643354 C59.2337053,21.6696668 59.6962007,21.2195046 60.1895365,20.7138353 C60.6828724,20.2081661 61.188534,19.6716714 61.7065367,19.1043352 C62.2245393,18.536999 62.7117011,17.9881711 63.1680368,17.4578351 C63.6243724,16.927499 64.0313684,16.4341706 64.3890369,15.9778349 C64.7467054,15.5214993 65.0118694,15.1576696 65.1845369,14.8863349 C65.3078709,14.6643337 65.4682026,14.5471682 65.665537,14.5348348 C65.8628713,14.5225014 66.0478695,14.5656677 66.220537,14.6643348 C66.3932046,14.763002 66.5103701,14.9048339 66.572037,15.0898349 C66.633704,15.2748358 66.6028706,15.4783338 66.479537,15.7003349 C66.3315363,15.9470028 66.0417058,16.335499 65.610037,16.865835 C65.1783681,17.396171 64.6665399,17.9881652 64.0745368,18.6418352 C63.4825338,19.2955051 62.8535401,19.9799984 62.1875367,20.6953353 C61.5215333,21.4106723 60.8740397,22.0766657 60.2450365,22.6933355 C59.6160333,23.3100053 59.0363724,23.8341668 58.5060364,24.2658356 C57.9757004,24.6975045 57.574871,24.9503353 57.3035363,25.0243357 C57.0568684,25.0983361 56.7177051,25.0181702 56.2860362,24.7838357 C55.8543674,24.5495011 55.4412048,24.2535041 55.0465361,23.8958356 C54.6518674,23.5381671 54.3127041,23.1681708 54.029036,22.7858355 C53.7453679,22.4035002 53.6282024,22.1013366 53.677536,21.8793354 C53.8255368,21.3119992 54.0352013,20.6336726 54.3065361,19.8443353 C54.5778708,19.0549979 54.855368,18.2656724 55.1390361,17.4763351 C55.4227042,16.6869977 55.7002015,15.9408385 55.9715362,15.2378349 C56.2428709,14.5348313 56.4772019,13.9860034 56.6745362,13.5913348 C56.2798676,14.0846706 55.8173722,14.750664 55.2870361,15.5893349 C54.7567001,16.4280058 54.2078722,17.315997 53.640536,18.2533351 C53.0731998,19.1906732 52.5182053,20.1156641 51.9755359,21.0283354 C51.4328664,21.9410067 50.939538,22.7303322 50.4955357,23.3963355 C50.3722018,23.5196695 50.0762047,23.5320027 49.6075357,23.4333356 C49.1388666,23.3346684 48.6517048,23.1620034 48.1460356,22.9153355 C47.6403663,22.6686676 47.1963707,22.3726705 46.8140354,22.0273354 C46.4317002,21.6820003 46.2652018,21.3243372 46.3145354,20.9543353 C46.3885358,20.6336671 46.5303677,20.1773382 46.7400354,19.5853352 C46.9497032,18.9933322 47.171701,18.3705051 47.4060355,17.7168351 C47.64037,17.0631651 47.874701,16.4280047 48.1090356,15.8113349 C48.3433701,15.1946651 48.5345348,14.7013367 48.6825356,14.3313348 C48.0165322,14.9973382 47.3690386,15.7373309 46.7400354,16.551335 C46.1110322,17.3653391 45.5128715,18.1854977 44.9455353,19.0118352 C44.3781991,19.8381727 43.8602042,20.6398314 43.3915352,21.4168354 C42.9228661,22.1938393 42.5035369,22.8783325 42.1335351,23.4703356 C41.8375336,23.6430031 41.455204,23.6121701 40.986535,23.3778355 C40.5178659,23.143501 40.0677037,22.8166709 39.6360349,22.3973355 C39.204366,21.978 38.8528695,21.5216712 38.5815348,21.0283354 C38.3102001,20.5349995 38.2238676,20.1280036 38.3225348,19.8073353 Z M73.7432218,11.6303346 C73.2498859,12.0250033 72.7380577,12.4998319 72.2077216,13.0548347 C71.6773856,13.6098375 71.1778906,14.2079983 70.7092215,14.8493349 C71.0792234,14.8246681 71.4985526,14.7568354 71.9672216,14.6458348 C72.4358907,14.5348343 72.9045527,14.3930023 73.3732217,14.2203348 C73.8418908,14.0476673 74.2735532,13.8318361 74.6682218,13.5728348 C75.0628905,13.3138334 75.3588876,12.9993366 75.5562219,12.6293347 C75.778223,12.234666 75.9077218,11.8831695 75.9447219,11.5748346 C75.9817221,11.2664997 75.9200561,11.0568351 75.7597219,10.9458345 C75.5993878,10.834834 75.346557,10.8286674 75.0012219,10.9273345 C74.6558868,11.0260017 74.2365576,11.2603327 73.7432218,11.6303346 Z M69.8212214,16.218335 C69.1305513,17.3283406 68.7543883,18.2471648 68.6927214,18.9748352 C68.6310544,19.7025056 68.7975527,20.2328336 69.1922214,20.5658353 C69.5868901,20.898837 70.1603844,21.0345023 70.9127215,20.9728354 C71.6650587,20.9111684 72.5160502,20.6398377 73.4657217,20.1588353 C74.4153932,19.6778328 75.4143833,18.9995062 76.462722,18.1238351 C77.5110606,17.248164 78.5285506,16.1566748 79.5152222,14.8493349 C79.7125566,14.6766673 79.9098879,14.602668 80.1072223,14.6273348 C80.3045566,14.6520016 80.471055,14.7260009 80.6067223,14.8493349 C80.7423897,14.9726688 80.8287222,15.1330006 80.8657223,15.3303349 C80.9027225,15.5276692 80.8472231,15.7126674 80.6992223,15.8853349 C79.1452144,17.8340115 77.5665634,19.4064959 75.9632219,20.6028353 C74.3598805,21.7991747 72.8367289,22.6439997 71.3937216,23.1373355 C69.9507142,23.6306714 68.6680603,23.8033363 67.5457213,23.6553356 C66.4233822,23.5073348 65.5847239,23.0695058 65.0297211,22.3418355 C64.4747182,21.6141651 64.258887,20.615175 64.382221,19.3448352 C64.505555,18.0744954 65.0975491,16.5760103 66.1582211,14.8493349 C66.8735581,13.6653288 67.7368829,12.5676731 68.7482214,11.5563346 C69.7595598,10.5449961 70.8572156,9.71867098 72.0412216,9.07733439 C73.0278933,8.53466496 73.9590507,8.28183414 74.8347219,8.31883432 C75.710393,8.35583451 76.4072194,8.59633213 76.925222,9.04033438 C77.4432247,9.48433664 77.7453883,10.0824974 77.8317221,10.8348345 C77.9180559,11.5871717 77.6775583,12.394997 77.110222,13.2583347 C76.7648869,13.7763374 76.2900583,14.220333 75.6857219,14.5903348 C75.0813855,14.9603367 74.4400585,15.2625004 73.7617218,15.4968349 C73.083385,15.7311694 72.3927252,15.9038344 71.6897216,16.0148349 C70.986718,16.1258355 70.3638909,16.1936682 69.8212214,16.218335 Z" id="Game" fill="#41B6E6"></path>
        </g>
    </g>
</svg>