<?xml version="1.0" encoding="UTF-8"?>
<svg width="181px" height="251px" viewBox="0 0 181 251" version="1.1" xmlns="http://www.w3.org/2000/svg" xmlns:xlink="http://www.w3.org/1999/xlink">
    <!-- Generator: Sketch 56.3 (81716) - https://sketch.com -->
    <title>OR-Magic</title>
    <desc>Created with Sketch.</desc>
    <g id="OR-Magic" stroke="none" stroke-width="1" fill="none" fill-rule="evenodd">
        <path d="M146,10.1 C146.357205,8.9036306 146.135283,7.60908583 145.4,6.6 C144.625181,5.6163055 143.451847,5.02963883 142.2,5 L121.9,5 L121,5.9 C111.8,15.1 101.8,19.7 91.3,19.7 L91.2,19.7 C73.2,19.7 59.4,6 59.2,5.9 L58.3,5 L38,5 C36.7481527,5.02963883 35.5748194,5.6163055 34.8,6.6 C34.0647172,7.60908583 33.8427953,8.9036306 34.2,10.1 C36.6,18.5 46.8,62.5 8,103.2 C6.076371,105.223524 5.00256095,107.908049 5,110.7 L5,240.4 C5,243.713708 7.6862915,246.4 11,246.4 L169.2,246.4 C172.513708,246.4 175.2,243.713708 175.2,240.4 L175.2,110.7 C175.197439,107.908049 174.123629,105.223524 172.2,103.2 C133.4,62.5 143.6,18.5 146,10.1 Z" id="Path" fill="#000000" fill-rule="nonzero"></path>
        <g transform="translate(11.000000, 97.300000)" fill-rule="nonzero" id="Combined-Shape">
            <path d="M158.2,25.2 L148.2,25.2 L148.2,0 C150.927262,3.47976968 153.831071,6.81748063 156.9,10 C157.721137,10.9443192 158.181648,12.1487333 158.2,13.4 L158.2,25.2 Z M148.2,103.2 L148.2,80.2 L158.2,80.2 L158.2,103.2 L148.2,103.2 Z M148.2,64.2 L148.2,41.2 L158.2,41.2 L158.2,64.2 L148.2,64.2 Z M10,41.2 L10,64.2 L-3.55271368e-15,64.2 L-3.55271368e-15,41.2 L10,41.2 Z M10,80.2 L10,103.2 L-3.55271368e-15,103.2 L-3.55271368e-15,80.2 L10,80.2 Z M1.3,10 C4.36892925,6.81748063 7.27273778,3.47976968 10,0 L10,25.2 L-8.8817842e-15,25.2 L-8.8817842e-15,13.4 C0.018351508,12.1487333 0.478862753,10.9443192 1.3,10 Z M-3.55271368e-15,119.2 L10,119.2 L10,143.1 L-3.55271368e-15,143.1 L-3.55271368e-15,119.2 Z M148.2,143.1 L148.2,119.2 L158.2,119.2 L158.2,143.1 L148.2,143.1 Z" fill="#FFFFFF"></path>
            <path d="M148.2,109.2 L158.2,109.2 L158.2,113.2 L148.2,113.2 L148.2,109.2 Z M148.2,74.2 L148.2,70.2 L158.2,70.2 L158.2,74.2 L148.2,74.2 Z M148.2,35.2 L148.2,31.2 L158.2,31.2 L158.2,35.2 L148.2,35.2 Z M0,35.2 L0,31.2 L10,31.2 L10,35.2 L0,35.2 Z M10,70.2 L10,74.2 L0,74.2 L0,70.2 L10,70.2 Z M10,109.2 L10,113.2 L0,113.2 L0,109.2 L10,109.2 Z" fill="#0277C0"></path>
        </g>
        <path d="M91.2,25.7 L91.3,25.7 C101.3,25.7 110.9,22.1 119.7,15.1 C116.8,45.7 97.6,68.1 93.5,72.5 C93.2948446,72.7314455 93.0082496,72.874743 92.7,72.9 L87.5,72.9 C87.1917504,72.874743 86.9051554,72.7314455 86.7,72.5 C82.6,68.1 63.3,45.6 60.4,14.7 C66.7,19.3 77.7,25.7 91.2,25.7 Z" id="Path" fill="#323232" fill-rule="nonzero"></path>
        <path d="M40.6,11 L54.2,11 C55.6,45 76,69.7 82.3,76.6 C83.6443834,78.0476032 85.5245281,78.8792056 87.5,78.9 L92.7,78.9 C94.6754719,78.8792056 96.5556166,78.0476032 97.9,76.6 C104.2,69.7 124.6,45 126,11 L139.6,11 C133.552698,37.6763714 138.451361,65.6635875 153.2,88.7 L153.2,240.4 L27,240.4 L27,88.7 C41.8021345,65.6844529 46.7047046,37.6749166 40.6,11 Z" id="Path" fill="#C7C7C7" fill-rule="nonzero"></path>
        <path d="M47.6153846,11 L47.6153846,240 L48.3653846,240 L48.3653846,11 L54.2,11 C54.4718914,17.6030761 55.4604018,23.855386 56.9230769,29.694668 L56.9230769,240 L57.6730769,240 L57.6730769,32.5098305 C59.9055151,40.4158897 62.9733594,47.5088225 66.2307692,53.6227779 L66.2307692,240 L66.9807692,240 L66.9807692,55.0075523 C69.8716379,60.2592139 72.8712397,64.7417859 75.5384615,68.3419915 L75.5384615,240 L76.2884615,240 L76.2884615,69.3430324 C78.7542785,72.5974335 80.883528,75.0486259 82.3,76.6 C83.0181988,77.3733411 83.8893001,77.9708799 84.8461538,78.3629156 L84.8461538,240 L85.5961538,240 L85.5961538,78.6229266 C86.209975,78.7984832 86.8498244,78.8931561 87.5,78.9 L92.7,78.9 C93.1928277,78.8948124 93.6797226,78.8391625 94.1538462,78.736075 L94.1538462,240 L94.9038462,240 L94.9038462,78.5300005 C96.0375122,78.1515573 97.0706919,77.4929811 97.9,76.6 C99.229561,75.1438142 101.187115,72.8948433 103.461538,69.932983 L103.461538,240 L104.211538,240 L104.211538,68.9453119 C106.852447,65.4284475 109.854201,61.014149 112.769233,55.8173511 L112.769231,240 L113.519231,240 L113.519231,54.4590529 C116.728287,48.5538979 119.783672,41.7005885 122.076923,34.0553769 L122.076923,240 L122.826923,240 L122.826923,31.4236887 C124.535996,25.0949159 125.701082,18.2594412 126,11 L131.384615,11 L131.384615,240 L132.134615,240 L132.134615,11 L139.6,11 C135.856751,27.5125357 136.307499,44.5273276 140.692308,60.5592961 L140.692308,240 L141.442308,240 L141.442308,63.1651415 C143.550028,70.1389182 146.409875,76.9086322 150,83.3494634 L150,240 L150.75,240 L150.75,84.6717751 C151.533856,86.0301405 152.350592,87.3732808 153.2,88.7 L153.2,240.4 L27,240.4 L27,88.7 C27.6880965,87.6300923 28.3548002,86.5493928 29,85.4585371 L29,240 L29.75,240 L29.75,84.16901 C33.295319,77.9691421 36.1545473,71.4538442 38.3076923,64.7373397 L38.3076923,240 L39.0576923,240 L39.0576923,62.2924659 C43.9031013,45.7586218 44.5145579,28.1049238 40.6,11 L47.6153846,11 Z" id="Combined-Shape" fill="#000000" fill-rule="nonzero"></path>
        <g id="Group" transform="translate(53.000000, 98.000000)" fill-rule="nonzero">
            <path d="M10.5468759,1 L13.1835948,3.63671897 L13.1835948,7.15234426 L9.66796956,7.15234426 L9.66796956,4.51562529 L3.51562529,4.51562529 L3.51562529,21.2148454 L9.66796956,21.2148454 L9.66796956,14.1835948 L6.15234426,14.1835948 L6.15234426,10.6679696 L13.1835948,10.6679696 L13.1835948,22.0937518 L10.5468759,24.7304707 L2.63671897,24.7304707 L1.42108547e-14,22.0937518 L1.42108547e-14,3.63671897 L2.63671897,1 L10.5468759,1 Z M19.4027357,24.7304707 L19.4027357,3.63671897 L22.0394547,1 L29.9496116,1 L32.5863305,3.63671897 L32.5863305,24.7304707 L29.0707052,24.7304707 L29.0707052,14.1835948 L22.918361,14.1835948 L22.918361,24.7304707 L19.4027357,24.7304707 Z M22.918361,10.6679696 L29.0707052,10.6679696 L29.0707052,4.51562529 L22.918361,4.51562529 L22.918361,10.6679696 Z M42.3210967,1 L45.3972688,10.6679696 L48.4734409,1 L51.9890662,1 L51.9890662,24.7304707 L48.4734409,24.7304707 L48.4734409,9.22656319 L46.7156283,15.0625012 L44.0789093,15.0625012 L42.3210967,9.4375007 L42.3210967,24.7304707 L38.8054714,24.7304707 L38.8054714,1 L42.3210967,1 Z M71.4269582,1 L71.4269582,4.51562529 L61.7589886,4.51562529 L61.7589886,10.6679696 L67.0324265,10.6679696 L67.0324265,14.1835948 L61.7589886,14.1835948 L61.7589886,21.2148454 L71.4269582,21.2148454 L71.4269582,24.7304707 L58.2433633,24.7304707 L58.2433633,1 L71.4269582,1 Z" id="GAME" fill="#0277C0"></path>
            <path d="M11.5468759,-8.70414851e-14 L14.1835948,2.63671897 L14.1835948,6.15234426 L10.6679696,6.15234426 L10.6679696,3.51562529 L4.51562529,3.51562529 L4.51562529,20.2148454 L10.6679696,20.2148454 L10.6679696,13.1835948 L7.15234426,13.1835948 L7.15234426,9.66796956 L14.1835948,9.66796956 L14.1835948,21.0937518 L11.5468759,23.7304707 L3.63671897,23.7304707 L1,21.0937518 L1,2.63671897 L3.63671897,-8.70414851e-14 L11.5468759,-8.70414851e-14 Z M20.4027357,23.7304707 L20.4027357,2.63671897 L23.0394547,-8.70414851e-14 L30.9496116,-8.70414851e-14 L33.5863305,2.63671897 L33.5863305,23.7304707 L30.0707052,23.7304707 L30.0707052,13.1835948 L23.918361,13.1835948 L23.918361,23.7304707 L20.4027357,23.7304707 Z M23.918361,9.66796956 L30.0707052,9.66796956 L30.0707052,3.51562529 L23.918361,3.51562529 L23.918361,9.66796956 Z M43.3210967,-8.70414851e-14 L46.3972688,9.66796956 L49.4734409,-8.70414851e-14 L52.9890662,-8.70414851e-14 L52.9890662,23.7304707 L49.4734409,23.7304707 L49.4734409,8.22656319 L47.7156283,14.0625012 L45.0789093,14.0625012 L43.3210967,8.4375007 L43.3210967,23.7304707 L39.8054714,23.7304707 L39.8054714,-8.70414851e-14 L43.3210967,-8.70414851e-14 Z M72.4269582,-8.70414851e-14 L72.4269582,3.51562529 L62.7589886,3.51562529 L62.7589886,9.66796956 L68.0324265,9.66796956 L68.0324265,13.1835948 L62.7589886,13.1835948 L62.7589886,20.2148454 L72.4269582,20.2148454 L72.4269582,23.7304707 L59.2433633,23.7304707 L59.2433633,-8.70414851e-14 L72.4269582,-8.70414851e-14 Z" id="GAME" fill="#FFFFFF"></path>
        </g>
    </g>
</svg>