<?xml version="1.0" encoding="UTF-8"?>
<svg width="181px" height="251px" viewBox="0 0 181 251" version="1.1" xmlns="http://www.w3.org/2000/svg" xmlns:xlink="http://www.w3.org/1999/xlink">
    <!-- Generator: Sketch 56.3 (81716) - https://sketch.com -->
    <title>NY-knicks</title>
    <desc>Created with Sketch.</desc>
    <g id="NY-knicks" stroke="none" stroke-width="1" fill="none" fill-rule="evenodd">
        <path d="M146,10.1 C146.357205,8.9036306 146.135283,7.60908583 145.4,6.6 C144.625181,5.6163055 143.451847,5.02963883 142.2,5 L121.9,5 L121,5.9 C111.8,15.1 101.8,19.7 91.3,19.7 L91.2,19.7 C73.2,19.7 59.4,6 59.2,5.9 L58.3,5 L38,5 C36.7481527,5.02963883 35.5748194,5.6163055 34.8,6.6 C34.0647172,7.60908583 33.8427953,8.9036306 34.2,10.1 C36.6,18.5 46.8,62.5 8,103.2 C6.076371,105.223524 5.00256095,107.908049 5,110.7 L5,240.4 C5,243.713708 7.6862915,246.4 11,246.4 L169.2,246.4 C172.513708,246.4 175.2,243.713708 175.2,240.4 L175.2,110.7 C175.197439,107.908049 174.123629,105.223524 172.2,103.2 C133.4,62.5 143.6,18.5 146,10.1 Z" id="Path" fill="#000000" fill-rule="nonzero"></path>
        <g id="SD-sides-knicks" transform="translate(11.000000, 97.300000)" fill-rule="nonzero">
            <path d="M158.2,13.4 L158.2,25.2 L148.2,25.2 L148.2,0 C150.927262,3.47976968 153.831071,6.81748063 156.9,10 C157.721137,10.9443192 158.181648,12.1487333 158.2,13.4 L158.2,13.4 Z" id="Path" fill="#006BB6"></path>
            <polygon id="Path" fill="#FFFFFF" points="148.2 109.2 158.2 109.2 158.2 113.2 148.2 113.2"></polygon>
            <polygon id="Path" fill="#006BB6" points="148.2 103.2 148.2 80.2 158.2 80.2 158.2 103.2"></polygon>
            <polygon id="Path" fill="#FFFFFF" points="148.2 74.2 148.2 70.2 158.2 70.2 158.2 74.2"></polygon>
            <polygon id="Path" fill="#006BB6" points="148.2 64.2 148.2 41.2 158.2 41.2 158.2 64.2"></polygon>
            <polygon id="Path" fill="#FFFFFF" points="148.2 35.2 148.2 31.2 158.2 31.2 158.2 35.2"></polygon>
            <polygon id="Path" fill="#006BB6" points="10 41.2 10 64.2 0 64.2 0 41.2"></polygon>
            <polygon id="Path" fill="#FFFFFF" points="0 35.2 0 31.2 10 31.2 10 35.2"></polygon>
            <polygon id="Path" fill="#FFFFFF" points="10 70.2 10 74.2 0 74.2 0 70.2"></polygon>
            <polygon id="Path" fill="#006BB6" points="10 80.2 10 103.2 0 103.2 0 80.2"></polygon>
            <polygon id="Path" fill="#FFFFFF" points="10 109.2 10 113.2 0 113.2 0 109.2"></polygon>
            <path d="M1.3,10 C4.36892925,6.81748063 7.27273778,3.47976968 10,0 L10,25.2 L-3.55271368e-15,25.2 L-3.55271368e-15,13.4 C0.018351508,12.1487333 0.478862753,10.9443192 1.3,10 L1.3,10 Z" id="Path" fill="#006BB6"></path>
            <polygon id="Path" fill="#006BB6" points="0 119.2 10 119.2 10 143.1 0 143.1"></polygon>
            <polygon id="Path" fill="#006BB6" points="148.2 143.1 148.2 119.2 158.2 119.2 158.2 143.1"></polygon>
        </g>
        <path d="M91.2,25.7 L91.3,25.7 C101.3,25.7 110.9,22.1 119.7,15.1 C116.8,45.7 97.6,68.1 93.5,72.5 C93.2948446,72.7314455 93.0082496,72.874743 92.7,72.9 L87.5,72.9 C87.1917504,72.874743 86.9051554,72.7314455 86.7,72.5 C82.6,68.1 63.3,45.6 60.4,14.7 C66.7,19.3 77.7,25.7 91.2,25.7 Z" id="Path" fill-opacity="0.5" fill="#006BB6" fill-rule="nonzero"></path>
        <path d="M40.6,11 L54.2,11 C55.6,45 76,69.7 82.3,76.6 C83.6443834,78.0476032 85.5245281,78.8792056 87.5,78.9 L92.7,78.9 C94.6754719,78.8792056 96.5556166,78.0476032 97.9,76.6 C104.2,69.7 124.6,45 126,11 L139.6,11 C133.552698,37.6763714 138.451361,65.6635875 153.2,88.7 L153.2,240.4 L27,240.4 L27,88.7 C41.8021345,65.6844529 46.7047046,37.6749166 40.6,11 Z" id="Path" fill="#006BB6" fill-rule="nonzero"></path>
        <path d="M64.5468759,100 L67.1835948,102.636719 L67.1835948,106.152344 L63.6679696,106.152344 L63.6679696,103.515625 L57.5156253,103.515625 L57.5156253,120.214845 L63.6679696,120.214845 L63.6679696,113.183595 L60.1523443,113.183595 L60.1523443,109.66797 L67.1835948,109.66797 L67.1835948,121.093752 L64.5468759,123.730471 L56.636719,123.730471 L54,121.093752 L54,102.636719 L56.636719,100 L64.5468759,100 Z M73.4027357,123.730471 L73.4027357,102.636719 L76.0394547,100 L83.9496116,100 L86.5863305,102.636719 L86.5863305,123.730471 L83.0707052,123.730471 L83.0707052,113.183595 L76.918361,113.183595 L76.918361,123.730471 L73.4027357,123.730471 Z M76.918361,109.66797 L83.0707052,109.66797 L83.0707052,103.515625 L76.918361,103.515625 L76.918361,109.66797 Z M96.3210967,100 L99.3972688,109.66797 L102.473441,100 L105.989066,100 L105.989066,123.730471 L102.473441,123.730471 L102.473441,108.226563 L100.715628,114.062501 L98.0789093,114.062501 L96.3210967,108.437501 L96.3210967,123.730471 L92.8054714,123.730471 L92.8054714,100 L96.3210967,100 Z M125.426958,100 L125.426958,103.515625 L115.758989,103.515625 L115.758989,109.66797 L121.032427,109.66797 L121.032427,113.183595 L115.758989,113.183595 L115.758989,120.214845 L125.426958,120.214845 L125.426958,123.730471 L112.243363,123.730471 L112.243363,100 L125.426958,100 Z" id="GAME" fill="#F58426" fill-rule="nonzero"></path>
    </g>
</svg>