<?xml version="1.0" encoding="utf-8"?>
<!-- Generator: Adobe Illustrator 16.0.0, SVG Export Plug-In . SVG Version: 6.00 Build 0)  -->
<!DOCTYPE svg PUBLIC "-//W3C//DTD SVG 1.1//EN" "http://www.w3.org/Graphics/SVG/1.1/DTD/svg11.dtd">
<svg version="1.1" id="Layer_1" xmlns="http://www.w3.org/2000/svg" xmlns:xlink="http://www.w3.org/1999/xlink" x="0px" y="0px"
	 width="50px" height="50px" viewBox="0 0 50 50" enable-background="new 0 0 50 50" xml:space="preserve">
<g>
	<g>
		<path d="M44.362,28.806c-0.066-1.223-0.232-2.44-0.344-3.662c-0.196-2.086-1.059-3.992-1.633-5.974
			c-0.365-1.254-1.357-1.924-2.549-1.95c-0.485-0.01-0.931,0.098-1.323,0.316c-0.052-0.054-0.108-0.107-0.171-0.159
			c-1.385-1.068-2.321,1.631-3.568,2.406c-0.725-0.222-1.354-0.73-1.701-1.446c-0.212-0.439-0.303-0.94-0.421-1.421
			c-0.318-1.331-1.107-2.244-2.431-2.596c-1.3-0.344-2.346,0.135-3.212,1.133c-0.461,0.531-0.977,1.021-1.504,1.49
			c-4.479,3.993-9.662,6.289-15.706,6.511c-2.117,0.078-3.877,1.509-4.404,3.564c-0.077,0.298-0.14,0.602-0.208,0.901
			c0,0.557,0,1.112,0,1.668c0.314,0.676,0.551,1.405,0.961,2.018c0.99,1.485,2.455,2.39,4.078,3.058
			c2.931,1.207,6.012,1.203,9.096,1.064c1.707-0.077,3.409-0.344,5.118-0.411c2.729-0.106,5.461-0.161,8.191-0.158
			c1.523,0.005,3.05,0.143,4.569,0.277c1.181,0.105,2.354,0.17,3.524-0.08c1.787-0.383,3.123-1.344,3.842-3.07
			c0.103-0.241,0.165-0.5,0.245-0.75c0-0.349,0-0.695,0-1.043C44.673,29.93,44.394,29.418,44.362,28.806z M8.18,25.691
			c0.546-0.355,1.139-0.538,1.785-0.609c1.553-0.171,3.117-0.287,4.644-0.59c1.272-0.253,2.499-0.738,3.744-1.122
			c0.087-0.027,0.171-0.064,0.2-0.076c0.331,0.729,0.208,0.693,0.554,1.355c0.112,0.216,0.354,0.406,0.581,0.512
			c0.383,0.176,0.683,0.053,0.938-0.283c0.213-0.284,0.199-0.717-0.05-1.068c-0.373-0.527-0.23-0.371-0.306-1.017
			c-0.013-0.103,0.027-0.274,0.1-0.317c0.508-0.293,1.031-0.562,1.546-0.833c0.196,0.48,0.078,0.294,0.288,0.751
			c0.111,0.24,0.265,0.464,0.423,0.676c0.311,0.417,0.804,0.499,1.192,0.213c0.371-0.274,0.448-0.76,0.156-1.172
			c-0.409-0.579-0.386-0.551-0.466-1.256c-0.012-0.097,0.021-0.245,0.088-0.295c0.488-0.369,0.99-0.719,1.505-1.086
			c0.129,0.401,0.222,0.794,0.383,1.158c0.185,0.41,0.048,0.201,0.294,0.576c0.311,0.477,0.819,0.579,1.226,0.289
			c0.395-0.282,0.463-0.78,0.134-1.227c-0.573-0.781-0.424-1.061-0.447-2.003c-0.003-0.101,0.101-0.219,0.182-0.303
			c0.483-0.499,0.989-0.978,1.46-1.487c0.405-0.436,0.857-0.729,1.469-0.568c0.622,0.163,1.01,0.596,1.184,1.207
			c0.132,0.466,0.188,0.958,0.352,1.41c1.007,2.771,3.724,3.392,5.543,2.858c0.905-0.265,1.567-0.815,1.913-1.72
			c0.209-0.55,0.538-0.786,1.026-0.777c0.527,0.01,0.812,0.335,0.994,0.784c0.056,0.139,0.125,0.288,0.124,0.431
			c-0.007,0.534,0.26,0.973,0.453,1.439c0.653,1.578,0.928,3.245,1.126,4.926c0.083,0.713,0.115,1.432,0.195,2.144
			c0.035,0.305-0.071,0.501-0.3,0.683c-0.657,0.524-1.423,0.805-2.241,0.832c-0.887,0.03-1.775-0.062-2.663-0.106
			c-1.41-0.072-2.819-0.223-4.228-0.212c-3.058,0.026-6.115,0.105-9.168,0.224c-1.549,0.062-3.089,0.319-4.637,0.378
			c-2.071,0.08-4.151,0.067-6.177-0.479c-1.457-0.394-2.815-0.995-3.949-2.025c-0.555-0.505-1-1.089-1.296-1.786
			C7.973,25.928,7.996,25.811,8.18,25.691z M41.962,33.049c-0.833,0.649-1.835,0.819-2.852,0.825
			c-0.715,0.003-1.427-0.122-2.143-0.17c-1.13-0.075-2.264-0.192-3.396-0.191c-2.941,0.01-5.885,0.03-8.821,0.132
			c-1.791,0.063-3.574,0.336-5.364,0.421c-2.875,0.137-5.75,0.187-8.492-0.923c-1.218-0.493-2.31-1.165-3.184-2.169
			c-0.828-0.955-1.043-2.033-0.756-3.262c0.041,0.022,0.09,0.034,0.109,0.062c1.246,1.83,3.049,2.86,5.091,3.548
			c1.837,0.618,3.74,0.704,5.653,0.773c1.606,0.057,3.188-0.199,4.78-0.294c2.229-0.133,4.462-0.29,6.695-0.331
			c2.232-0.044,4.467,0.016,6.702,0.08c0.92,0.027,1.838,0.204,2.761,0.264c1.506,0.096,2.958-0.104,4.279-0.905
			c0.018-0.013,0.044-0.005,0.119-0.011C43.153,31.856,42.645,32.513,41.962,33.049z"/>
	</g>
</g>
</svg>
