<?xml version="1.0" encoding="utf-8"?>
<!-- Generator: Adobe Illustrator 16.0.0, SVG Export Plug-In . SVG Version: 6.00 Build 0)  -->
<!DOCTYPE svg PUBLIC "-//W3C//DTD SVG 1.1//EN" "http://www.w3.org/Graphics/SVG/1.1/DTD/svg11.dtd">
<svg version="1.1" id="Layer_1" xmlns="http://www.w3.org/2000/svg" xmlns:xlink="http://www.w3.org/1999/xlink" x="0px" y="0px"
	 width="50px" height="50px" viewBox="0 0 50 50" enable-background="new 0 0 50 50" xml:space="preserve">
<g>
	<path d="M44.418,21.872c-0.112-0.991-0.14-1.997-0.33-2.972c-0.55-2.821-1.104-5.645-1.772-8.44
		c-0.473-1.985-1.769-3.394-3.665-4.134c-2.127-0.828-4.281-1.589-6.453-2.284c-0.63-0.201-1.392-0.212-2.046-0.075
		c-3.202,0.669-6.389,0.908-9.606,0.102c-0.988-0.249-1.994-0.395-3.02-0.026c-1.314,0.473-2.648,0.893-3.987,1.293
		c-3.742,1.12-6.001,3.535-6.579,7.448c-0.438,2.953-0.862,5.91-1.352,8.854c-0.147,0.889,0.108,1.411,0.941,1.674
		c1.971,0.62,3.94,1.235,6.06,1.899c0,0.103,0,0.342,0,0.583c0.004,2.837,0.009,6.993,0.014,9.83c0,0.005,0.001,0.008,0.001,0.014
		c0,0.651,0.335,0.996,0.939,0.996c0.599,0,0.774-0.637,0.778-0.655c-0.004-1.972-0.01-5.264-0.013-7.234
		c-0.006-3.667,0.021-7.335-0.048-11.001c-0.03-1.554-0.524-3.02-1.451-4.304c-0.143-0.196-0.285-0.476-0.479-0.527
		c-0.368-0.102-0.851-0.209-1.146-0.053c-0.476,0.252-0.477,0.786-0.126,1.188c1.234,1.412,1.534,3.108,1.555,4.894
		c0.016,1.373,0.003,2.746,0.003,4.247c-1.826-0.16-3.436-0.668-5.003-1.313c-0.142-0.059-0.298-0.332-0.281-0.486
		c0.382-3.535,0.806-7.064,1.923-10.468c0.489-1.495,1.471-2.516,2.878-3.087c1.768-0.718,3.575-1.338,5.378-1.964
		c0.215-0.073,0.65-0.003,0.746,0.149c1.037,1.678,2.689,2.34,4.479,2.765c2.198,0.523,4.337,0.266,6.401-0.628
		c1.143-0.492,2.072-1.25,2.766-2.52c1.619,0.569,3.256,1.145,4.891,1.724c0.151,0.054,0.288,0.15,0.439,0.204
		c2.094,0.73,3.353,2.203,3.753,4.363c0.569,3.065,1.084,6.141,1.598,9.217c0.037,0.221-0.054,0.629-0.196,0.688
		c-1.583,0.679-3.215,1.202-5.066,1.353c0.086-2.336-0.273-4.609,0.356-6.822c0.222-0.78,0.684-1.511,1.129-2.205
		c0.328-0.515,0.417-0.962-0.062-1.352c-0.462-0.374-0.922-0.196-1.275,0.226c-1.312,1.56-1.83,3.412-1.836,5.399
		c-0.023,7.855-0.028,15.71,0.011,23.564c0.003,0.817-0.282,1.121-1.001,1.32c-2.749,0.76-5.554,1.055-8.393,1.101
		c-3.731,0.062-7.437-0.097-11.058-1.137c-0.656-0.188-0.886-0.478-0.882-1.169c0.007-1.34,0.011-2.197,0.012-3.537
		c-0.008-0.393-0.19-1.008-0.862-1.008c-0.688,0-0.85,0.925-0.85,0.925h-0.002c0.003,1.544,0.006,2.607,0.01,4.15
		c0.001,1.562,0.007,1.59,1.529,2.093c4.029,1.332,8.199,1.536,12.388,1.42c3.293-0.091,6.559-0.423,9.697-1.558
		c0.821-0.296,1.102-0.738,1.094-1.606c-0.038-4.913-0.02-9.827-0.02-14.742c0-1.07,0-2.144,0-3.219
		c0.291-0.06,0.422-0.077,0.546-0.112c1.906-0.557,3.812-1.112,5.716-1.674C44.273,23.04,44.494,22.549,44.418,21.872z"/>
</g>
</svg>
