<?xml version="1.0" encoding="utf-8"?>
<!-- Generator: Adobe Illustrator 16.0.0, SVG Export Plug-In . SVG Version: 6.00 Build 0)  -->
<!DOCTYPE svg PUBLIC "-//W3C//DTD SVG 1.1//EN" "http://www.w3.org/Graphics/SVG/1.1/DTD/svg11.dtd">
<svg version="1.1" id="Layer_1" xmlns="http://www.w3.org/2000/svg" xmlns:xlink="http://www.w3.org/1999/xlink" x="0px" y="0px"
	 width="50px" height="50px" viewBox="0 0 50 50" enable-background="new 0 0 50 50" xml:space="preserve">
<path d="M40.71,20.32c-0.113-2.181-0.891-4.27-2.246-6.041c-1.626-2.125-4.007-3.872-7.277-5.34
	c-1.895-0.869-4.311-0.76-7.066,0.316c-1.94,0.759-3.912,1.895-5.86,3.378l-0.105,0.08c-0.42,0.319-0.854,0.649-1.232,1.028
	c-0.505,0.506-0.708,1.327-0.118,1.917c0.096,0.095,0.15,0.144,0.188,0.168l0.086,0.084c0.147,0.137,0.323,0.209,0.506,0.209
	c0.188,0,0.367-0.075,0.506-0.212c0.222-0.218,0.123-0.589,0.029-0.772l-0.01-0.019l-0.046-0.05
	c-0.097-0.104-0.198-0.21-0.314-0.297c0.021-0.037,0.044-0.075,0.061-0.095c0.028-0.032,0.062-0.063,0.1-0.099l0.031-0.027
	c0.175-0.161,0.358-0.312,0.578-0.492c0.599-0.485,1.33-1.013,2.114-1.524c2.424-1.582,4.5-2.473,6.534-2.802
	c0.386-0.062,0.772-0.094,1.147-0.094c0.745,0,1.45,0.123,2.096,0.365c0.049,0.019,0.096,0.038,0.142,0.057
	c0.063,0.029,0.127,0.057,0.188,0.085c0.081,0.039,0.162,0.082,0.249,0.131c0.036,0.028,0.077,0.054,0.119,0.073l1.823,1.81
	c0.151,0.232,0.296,0.489,0.441,0.786c0.264,0.539,0.442,1.12,0.533,1.733c-0.313-0.038-0.634-0.058-0.957-0.058
	c-2.233,0-4.622,0.86-7.52,2.709c-0.573,0.366-1.121,0.748-1.535,1.041c-0.084,0.061-0.171,0.125-0.259,0.191
	c-0.361,0.273-0.735,0.555-1.141,0.586c-0.173,0.014-0.317-0.03-0.499-0.15c-0.006-0.006-0.012-0.011-0.016-0.016
	c-0.036-0.032-0.101-0.091-0.128-0.12c-0.012-0.012-0.023-0.025-0.034-0.038l-0.007-0.008c-0.009-0.012-0.022-0.029-0.029-0.039
	c-0.1-0.146-0.22-0.263-0.335-0.376l-0.061-0.058c-0.347-0.343-0.611-0.609-0.867-0.869c-0.257-0.259-0.522-0.528-0.872-0.872
	l-0.248-0.243l-0.042-0.036c-0.22-0.129-0.453-0.109-0.653,0.056c-0.44,0.364-0.257,0.816-0.184,0.919l0.016,0.019
	c0.198,0.194,0.311,0.312,0.42,0.427c0.11,0.116,0.225,0.236,0.426,0.435l1.324,1.303c0.253,0.374,0.614,0.658,1.072,0.844
	c0.197,0.079,0.411,0.12,0.635,0.12c0.493,0,1.055-0.204,1.584-0.572l0.295-0.207c0.868-0.607,1.766-1.233,2.695-1.779
	c2.728-1.601,4.99-2.217,6.976-1.901c-0.005,0.043-0.009,0.086-0.015,0.129l-0.008,0.068c-0.001,0.011-0.003,0.026-0.007,0.047
	c-0.01,0.075-0.023,0.152-0.036,0.226c-0.026,0.164-0.061,0.338-0.104,0.534c-0.081,0.374-0.187,0.762-0.32,1.188
	c-0.658,2.09-1.816,4.202-3.539,6.456c-1.006,1.317-2.21,2.635-3.678,4.029c-0.743,0.704-1.544,1.408-2.452,2.154
	c-0.056,0.045-0.11,0.09-0.171,0.139c-0.046,0.035-0.093,0.071-0.14,0.105c-1.815,1.353-3.82,2.376-5.795,2.958
	c-0.956,0.281-1.883,0.441-2.759,0.475c0.295-2.83,1.319-5.591,2.964-7.997c0.454-0.663,0.874-1.189,1.363-1.702
	c0.055-0.057,0.111-0.112,0.168-0.168c0.111-0.11,0.226-0.223,0.329-0.351c0.521-0.653,0.608-1.469,0.243-2.297
	c-0.226-0.512-0.65-0.925-1.06-1.325c-0.098-0.094-0.192-0.187-0.283-0.277c-0.934-0.954-1.779-1.811-2.664-2.632L15.91,17.66
	c-0.389-0.364-0.83-0.778-1.45-0.779c-0.735,0-1.292,0.614-1.645,1.076c-0.051,0.065-0.103,0.141-0.166,0.237
	c-0.001,0.002-0.002,0.003-0.003,0.006c-0.019,0.016-0.04,0.037-0.056,0.062c-0.02,0.021-0.039,0.044-0.057,0.067l-0.01,0.012
	c-0.208,0.254-0.388,0.519-0.537,0.743c-1.16,1.753-2.119,3.74-2.851,5.91c-1.033,3.062-1.158,5.511-0.382,7.489
	c0.047,0.12,0.101,0.243,0.162,0.374c0.483,1.516,1.406,3.017,2.822,4.59c1.078,1.198,2.386,2.219,3.781,2.951
	c1.569,0.823,3.285,1.241,5.096,1.241l0,0c0.821,0,1.656-0.088,2.479-0.264c2.144-0.454,4.3-1.474,6.592-3.114
	c1.648-1.18,3.272-2.626,4.827-4.298c0.85-0.915,1.566-1.766,2.182-2.595c0.074-0.091,0.146-0.186,0.219-0.279l0.006-0.008
	c0.237-0.308,0.477-0.645,0.733-1.032C39.162,27.773,40.917,24.237,40.71,20.32z M13.299,19.44c0.036-0.051,0.072-0.102,0.109-0.151
	l0.046-0.06c0.123-0.151,0.262-0.323,0.393-0.512c0.233-0.332,0.484-0.548,0.639-0.548c0.035,0,0.065,0.011,0.094,0.035
	c0.35,0.282,0.681,0.604,1.001,0.914l0.132,0.129c0.876,0.848,1.731,1.719,2.452,2.46l0.062,0.062
	c0.444,0.455,0.948,0.971,0.621,1.571c-0.075,0.138-0.197,0.253-0.326,0.374c-0.054,0.052-0.107,0.103-0.159,0.154
	c-0.177,0.186-0.358,0.39-0.57,0.643c-0.676,0.811-1.298,1.714-1.847,2.685c-1.244,2.197-2.036,4.7-2.295,7.248
	c-0.085-0.01-0.163-0.02-0.236-0.03c-0.762-0.11-1.494-0.331-2.174-0.659c-0.459-0.221-0.79-0.741-1.054-1.221
	c-0.019-0.033-0.036-0.068-0.053-0.102l-0.007-0.014l-0.001-0.004c-0.019-0.061-0.037-0.12-0.054-0.181
	c-0.03-0.106-0.08-0.197-0.149-0.27c-0.815-2.09-0.189-4.606,0.354-6.32c0.644-2.032,1.575-3.993,2.767-5.829
	C13.127,19.69,13.212,19.563,13.299,19.44z"/>
</svg>
